<svg width="40" height="40" viewBox="0 0 40 40" fill="none" xmlns="http://www.w3.org/2000/svg">
<rect width="40" height="40" rx="8" fill="white"/>
<path d="M20.0001 4C28.8367 4 36 11.1633 36 20C36 28.8367 28.8367 36 20.0001 36C11.1636 36 4 28.8367 4 20C4 11.1633 11.1636 4 20.0001 4Z" fill="#00AED6"/>
<path fill-rule="evenodd" clip-rule="evenodd" d="M29.3335 19.5068C29.2115 17.4705 27.4779 15.9091 25.4401 16H15.3334C14.9652 16 14.6668 15.7016 14.6668 15.3333C14.6668 14.9652 14.9652 14.6667 15.3334 14.6667H25.5734C25.5137 13.2866 24.5715 12.1021 23.24 11.7333C20.2549 11.2002 17.1988 11.2002 14.2134 11.7333C12.5169 12.1503 11.2476 13.5622 11.0134 15.2935C10.5468 18.4317 10.5468 21.6216 11.0134 24.7601C11.3707 26.592 12.8262 28.0103 14.6668 28.32C18.3676 28.7868 22.1124 28.7868 25.8134 28.32C27.462 27.986 28.7098 26.6307 28.9066 24.9599C29.2453 23.1628 29.3883 21.3347 29.3335 19.5068ZM26 21.7468V22.3333C26 22.7016 25.7016 23.0001 25.3334 23.0001C24.9652 23.0001 24.6668 22.7016 24.6668 22.3333V21.7468C24.4513 21.5588 24.3294 21.2858 24.3335 21C24.3335 20.4478 24.7811 20 25.3334 20C25.8857 20 26.3335 20.4478 26.3335 21C26.3304 21.2844 26.2098 21.5547 26 21.7468Z" fill="white"/>
</svg>
